# xmcd CD database file
# Copyright (C) 1997 Ti Kan
#
# Track frame offsets:
#  187
#  3607
#  14465
#  26842
#  40102
#  55722
#  69700
#  82312
#  92662
#  108310
#  118472
#  129135
#  143787
#  156160
#  166785
#  180035
#
# Disc length: 2576 seconds
#
# Revision: 1
# Processed by: cddbd v1.4b41PL1 Copyright (c) Steve Scherf et al.
# Submitted via: CDWizzard Release:4.30
#
DISCID=cd0a0e10
DTITLE=Eddy Arnold - Hand-Holdin' Songs
DYEAR=1900
DGENRE=
TTITLE0=I Love You Because
TTITLE1=The Nearness of You
TTITLE2=The Way You Look Tonight
TTITLE3=As Time Goes By
TTITLE4=And I Love You So
TTITLE5=Can't Help Falling In Love With You
TTITLE6=You Belong to Me
TTITLE7=It's Been A Long, Long Time
TTITLE8=You'll Never Know
TTITLE9=You Must Have Been A Beautiful Baby
TTITLE10=You Are So Beautiful
TTITLE11=To Each His Own
TTITLE12=That's My Desire
TTITLE13=I Only Have Eyes For You
TTITLE14=I'll String Along With You
TTITLE15=I Love You Because
EXTD=
EXTT0=
EXTT1=
EXTT2=
EXTT3=
EXTT4=
EXTT5=
EXTT6=
EXTT7=
EXTT8=
EXTT9=
EXTT10=
EXTT11=
EXTT12=
EXTT13=
EXTT14=
EXTT15=
PLAYORDER=
